{
    "asset" : {
        "generator" : "Khronos glTF Blender I/O v1.8.19",
        "version" : "2.0"
    },
    "scene" : 0,
    "scenes" : [
        {
            "name" : "Scene",
            "nodes" : [
                1,
                19
            ]
        }
    ],
    "nodes" : [
        {
            "name" : "038F_05SET_04SHOT.OBJ.cleaner.materialmerger.gles"
        },
        {
            "children" : [
                0
            ],
            "name" : "Sketchfab_model",
            "rotation" : [
                -0.7071068286895752,
                0,
                0,
                0.7071068286895752
            ]
        },
        {
            "name" : "thumb_2",
            "rotation" : [
                0.0019290888449177146,
                0.0011351879220455885,
                -0.006319731008261442,
                0.9999775290489197
            ],
            "scale" : [
                1,
                0.9999998807907104,
                0.9999999403953552
            ],
            "translation" : [
                -2.8497979087660497e-07,
                0.4618006646633148,
                4.484025950546311e-08
            ]
        },
        {
            "children" : [
                2
            ],
            "name" : "thumb_1",
            "rotation" : [
                -0.03744350001215935,
                0.011426828801631927,
                -0.2636673152446747,
                0.9638189673423767
            ],
            "scale" : [
                0.9999998211860657,
                0.9999998807907104,
                0.9999998211860657
            ],
            "translation" : [
                0.7120485901832581,
                0.5611565709114075,
                0.18689662218093872
            ]
        },
        {
            "name" : "index_3",
            "rotation" : [
                0.06954716145992279,
                -0.021755043417215347,
                0.011415504850447178,
                0.9972761273384094
            ],
            "scale" : [
                1.0000001192092896,
                1,
                0.9999999403953552
            ],
            "translation" : [
                5.5281351052371974e-08,
                0.4028763771057129,
                -1.2775571178735845e-07
            ]
        },
        {
            "children" : [
                4
            ],
            "name" : "index_2",
            "rotation" : [
                0.2795112133026123,
                0.05040089040994644,
                -0.01979702338576317,
                0.9586142897605896
            ],
            "scale" : [
                0.9999998807907104,
                0.9999998807907104,
                0.9999999403953552
            ],
            "translation" : [
                -2.3333939225267386e-08,
                0.43976423144340515,
                -7.643956578817779e-09
            ]
        },
        {
            "children" : [
                5
            ],
            "name" : "index_1",
            "rotation" : [
                0.05599511042237282,
                -0.004258120898157358,
                -0.0344533771276474,
                0.9978273510932922
            ],
            "scale" : [
                0.9999998807907104,
                0.9999998211860657,
                0.9999998211860657
            ],
            "translation" : [
                0.48528754711151123,
                1.2709429264068604,
                -0.06173565983772278
            ]
        },
        {
            "name" : "middle_3",
            "rotation" : [
                0.1390598714351654,
                0.017929960042238235,
                0.04046531766653061,
                0.9892944097518921
            ],
            "scale" : [
                1,
                1,
                1.0000001192092896
            ],
            "translation" : [
                -3.160658934575622e-08,
                0.4184820353984833,
                -1.5528635799455515e-07
            ]
        },
        {
            "children" : [
                7
            ],
            "name" : "middle_2",
            "rotation" : [
                0.285727858543396,
                0.02000925876200199,
                0.010323218069970608,
                0.9580462574958801
            ],
            "translation" : [
                -2.3178980512739145e-08,
                0.4285394549369812,
                -1.0136887595990629e-07
            ]
        },
        {
            "children" : [
                8
            ],
            "name" : "middle_1",
            "rotation" : [
                0.0728336051106453,
                0.009529386647045612,
                -0.01804226264357567,
                0.9971354007720947
            ],
            "scale" : [
                0.9999998807907104,
                0.9999999403953552,
                0.9999998807907104
            ],
            "translation" : [
                0.1385263204574585,
                1.3739453554153442,
                -0.06241020932793617
            ]
        },
        {
            "name" : "ring_3",
            "rotation" : [
                0.07414509356021881,
                -0.08427340537309647,
                -0.04270258918404579,
                0.9927623271942139
            ],
            "scale" : [
                0.9999999403953552,
                0.9999999403953552,
                1
            ],
            "translation" : [
                -8.365194048565172e-08,
                0.37095150351524353,
                1.1591738768856885e-07
            ]
        },
        {
            "children" : [
                10
            ],
            "name" : "ring_2",
            "rotation" : [
                0.31289130449295044,
                0.015946170315146446,
                -0.02649145945906639,
                0.9492855072021484
            ],
            "scale" : [
                0.9999998807907104,
                1.0000001192092896,
                0.9999998211860657
            ],
            "translation" : [
                -3.573216034169491e-08,
                0.3835974633693695,
                -4.041601755488955e-07
            ]
        },
        {
            "children" : [
                11
            ],
            "name" : "ring_1",
            "rotation" : [
                0.16502578556537628,
                -0.01350329164415598,
                0.02200860157608986,
                0.98595130443573
            ],
            "scale" : [
                0.9999998211860657,
                0.9999998211860657,
                0.9999998807907104
            ],
            "translation" : [
                -0.16209258139133453,
                1.311021327972412,
                0.04450954869389534
            ]
        },
        {
            "name" : "little_3",
            "rotation" : [
                0.057075805962085724,
                -0.20371666550636292,
                -0.1791522353887558,
                0.9608050584793091
            ],
            "scale" : [
                0.9999998211860657,
                1.0000001192092896,
                1
            ],
            "translation" : [
                2.0433930103536113e-07,
                0.26819348335266113,
                -8.976813958838648e-09
            ]
        },
        {
            "children" : [
                13
            ],
            "name" : "little_2",
            "rotation" : [
                0.3109738528728485,
                -0.10396968573331833,
                -0.1290537416934967,
                0.9358583688735962
            ],
            "scale" : [
                0.9999998211860657,
                0.9999999403953552,
                0.9999999403953552
            ],
            "translation" : [
                6.146728992462158e-08,
                0.36191609501838684,
                7.264316082000732e-08
            ]
        },
        {
            "children" : [
                14
            ],
            "name" : "little_1",
            "rotation" : [
                0.17680057883262634,
                -0.007258640602231026,
                0.1043659970164299,
                0.9786708354949951
            ],
            "scale" : [
                0.9999998211860657,
                0.9999997615814209,
                0.9999999403953552
            ],
            "translation" : [
                -0.4934161603450775,
                1.088774561882019,
                0.1151689887046814
            ]
        },
        {
            "children" : [
                3,
                6,
                9,
                12,
                15
            ],
            "name" : "palm",
            "rotation" : [
                -0.18182897567749023,
                0.0011619043070822954,
                -0.020698292180895805,
                0.9831116199493408
            ],
            "scale" : [
                1.000000238418579,
                1,
                1.0000001192092896
            ],
            "translation" : [
                2.609477078863165e-10,
                1.3672109842300415,
                -2.7083558507001726e-08
            ]
        },
        {
            "children" : [
                16
            ],
            "name" : "wrist",
            "rotation" : [
                0.12586252391338348,
                -0.0020918408408761024,
                2.5242827177862637e-05,
                0.992045521736145
            ],
            "translation" : [
                -0.16252751648426056,
                0.045790620148181915,
                -0.029501643031835556
            ]
        },
        {
            "mesh" : 0,
            "name" : "Object_2",
            "skin" : 0
        },
        {
            "children" : [
                18,
                17
            ],
            "name" : "\u9aa8\u67b6",
            "scale" : [
                6.480801105499268,
                6.480801105499268,
                6.480801105499268
            ]
        }
    ],
    "materials" : [
        {
            "doubleSided" : true,
            "name" : "default",
            "occlusionTexture" : {
                "index" : 0,
                "strength" : 0.5687881112098694
            },
            "pbrMetallicRoughness" : {}
        }
    ],
    "meshes" : [
        {
            "name" : "Object_0",
            "primitives" : [
                {
                    "attributes" : {
                        "POSITION" : 0,
                        "NORMAL" : 1,
                        "TEXCOORD_0" : 2,
                        "JOINTS_0" : 3,
                        "WEIGHTS_0" : 4
                    },
                    "indices" : 5,
                    "material" : 0
                }
            ]
        }
    ],
    "textures" : [
        {
            "sampler" : 0,
            "source" : 0
        }
    ],
    "images" : [
        {
            "mimeType" : "image/png",
            "name" : "default_occlusion",
            "uri" : "default_occlusion.png"
        }
    ],
    "skins" : [
        {
            "inverseBindMatrices" : 6,
            "joints" : [
                17,
                16,
                3,
                2,
                6,
                5,
                4,
                9,
                8,
                7,
                12,
                11,
                10,
                15,
                14,
                13
            ],
            "name" : "\u9aa8\u67b6"
        }
    ],
    "accessors" : [
        {
            "bufferView" : 0,
            "componentType" : 5126,
            "count" : 4390,
            "max" : [
                7.251595497131348,
                24.724754333496094,
                5.976966857910156
            ],
            "min" : [
                -4.986301422119141,
                -0.23286886513233185,
                -2.940427780151367
            ],
            "type" : "VEC3"
        },
        {
            "bufferView" : 1,
            "componentType" : 5126,
            "count" : 4390,
            "type" : "VEC3"
        },
        {
            "bufferView" : 2,
            "componentType" : 5126,
            "count" : 4390,
            "type" : "VEC2"
        },
        {
            "bufferView" : 3,
            "componentType" : 5121,
            "count" : 4390,
            "type" : "VEC4"
        },
        {
            "bufferView" : 4,
            "componentType" : 5126,
            "count" : 4390,
            "type" : "VEC4"
        },
        {
            "bufferView" : 5,
            "componentType" : 5123,
            "count" : 24246,
            "type" : "SCALAR"
        },
        {
            "bufferView" : 6,
            "componentType" : 5126,
            "count" : 16,
            "type" : "MAT4"
        }
    ],
    "bufferViews" : [
        {
            "buffer" : 0,
            "byteLength" : 52680,
            "byteOffset" : 0
        },
        {
            "buffer" : 0,
            "byteLength" : 52680,
            "byteOffset" : 52680
        },
        {
            "buffer" : 0,
            "byteLength" : 35120,
            "byteOffset" : 105360
        },
        {
            "buffer" : 0,
            "byteLength" : 17560,
            "byteOffset" : 140480
        },
        {
            "buffer" : 0,
            "byteLength" : 70240,
            "byteOffset" : 158040
        },
        {
            "buffer" : 0,
            "byteLength" : 48492,
            "byteOffset" : 228280
        },
        {
            "buffer" : 0,
            "byteLength" : 1024,
            "byteOffset" : 276772
        }
    ],
    "samplers" : [
        {
            "magFilter" : 9729,
            "minFilter" : 9987
        }
    ],
    "buffers" : [
        {
            "byteLength" : 277796,
            "uri" : "female_hand_bone3.bin"
        }
    ]
}
