{
    "asset" : {
        "generator" : "Khronos glTF Blender I/O v1.8.19",
        "version" : "2.0"
    },
    "scene" : 0,
    "scenes" : [
        {
            "name" : "Scene",
            "nodes" : [
                0,
                1,
                2,
                3,
                4
            ]
        }
    ],
    "nodes" : [
        {
            "mesh" : 0,
            "name" : "Arc002",
            "scale" : [
                0.02539999969303608,
                0.02539999969303608,
                0.02539999969303608
            ]
        },
        {
            "mesh" : 1,
            "name" : "crown",
            "rotation" : [
                0,
                0,
                -0.04361937940120697,
                0.9990482330322266
            ],
            "scale" : [
                0.02540000155568123,
                0.02540000155568123,
                0.02539999969303608
            ],
            "translation" : [
                0.005659407936036587,
                0.09186972677707672,
                0
            ]
        },
        {
            "mesh" : 2,
            "name" : "Line001",
            "rotation" : [
                0,
                0.7071067094802856,
                0.7071068286895752,
                5.3385068810030134e-08
            ],
            "scale" : [
                -0.02539999969303608,
                -0.02539999969303608,
                -0.02539999969303608
            ],
            "translation" : [
                0.11807844042778015,
                0.019294340163469315,
                0.15427224338054657
            ]
        },
        {
            "mesh" : 3,
            "name" : "Line003",
            "rotation" : [
                0.4999999701976776,
                -0.5000000596046448,
                0.5000000596046448,
                0.4999999403953552
            ],
            "scale" : [
                0.00026913839974440634,
                0.00026913839974440634,
                0.00026913839974440634
            ],
            "translation" : [
                -0.2511523962020874,
                0.026705177500844002,
                0
            ]
        },
        {
            "mesh" : 4,
            "name" : "Line002",
            "rotation" : [
                0.7071067094802856,
                0,
                0,
                0.7071068286895752
            ],
            "scale" : [
                0.02539999969303608,
                0.02539999969303608,
                0.02539999969303608
            ],
            "translation" : [
                0.11807844042778015,
                0.019294340163469315,
                -0.1542869508266449
            ]
        }
    ],
    "materials" : [
        {
            "doubleSided" : true,
            "name" : "\u9280",
            "pbrMetallicRoughness" : {
                "baseColorFactor" : [
                    0.9279999732971191,
                    0.949999988079071,
                    0.9620000123977661,
                    1
                ],
                "metallicFactor" : 0,
                "roughnessFactor" : 0.5527864098548889
            }
        }
    ],
    "meshes" : [
        {
            "name" : "Mesh",
            "primitives" : [
                {
                    "attributes" : {
                        "POSITION" : 0,
                        "NORMAL" : 1
                    },
                    "indices" : 2,
                    "material" : 0
                }
            ]
        },
        {
            "name" : "Mesh.001",
            "primitives" : [
                {
                    "attributes" : {
                        "POSITION" : 3,
                        "NORMAL" : 4
                    },
                    "indices" : 5,
                    "material" : 0
                }
            ]
        },
        {
            "name" : "Mesh.002",
            "primitives" : [
                {
                    "attributes" : {
                        "POSITION" : 6,
                        "NORMAL" : 7
                    },
                    "indices" : 8,
                    "material" : 0
                }
            ]
        },
        {
            "name" : "Mesh.003",
            "primitives" : [
                {
                    "attributes" : {
                        "POSITION" : 9,
                        "NORMAL" : 10
                    },
                    "indices" : 11,
                    "material" : 0
                }
            ]
        },
        {
            "name" : "Mesh.004",
            "primitives" : [
                {
                    "attributes" : {
                        "POSITION" : 12,
                        "NORMAL" : 13
                    },
                    "indices" : 14,
                    "material" : 0
                }
            ]
        }
    ],
    "accessors" : [
        {
            "bufferView" : 0,
            "componentType" : 5126,
            "count" : 7632,
            "max" : [
                10.086840629577637,
                2.9883170127868652,
                10.247696876525879
            ],
            "min" : [
                -10.236689567565918,
                -0.25,
                -10.247694969177246
            ],
            "type" : "VEC3"
        },
        {
            "bufferView" : 1,
            "componentType" : 5126,
            "count" : 7632,
            "type" : "VEC3"
        },
        {
            "bufferView" : 2,
            "componentType" : 5123,
            "count" : 45168,
            "type" : "SCALAR"
        },
        {
            "bufferView" : 3,
            "componentType" : 5126,
            "count" : 4712,
            "max" : [
                -1.1769050359725952,
                1.3429197072982788,
                10.081932067871094
            ],
            "min" : [
                -10.141180038452148,
                -1.5000193119049072,
                -10.081931114196777
            ],
            "type" : "VEC3"
        },
        {
            "bufferView" : 4,
            "componentType" : 5126,
            "count" : 4712,
            "type" : "VEC3"
        },
        {
            "bufferView" : 5,
            "componentType" : 5123,
            "count" : 13980,
            "type" : "SCALAR"
        },
        {
            "bufferView" : 6,
            "componentType" : 5126,
            "count" : 150,
            "max" : [
                2.050227642059326,
                -1.3094463348388672,
                1.0081958770751953
            ],
            "min" : [
                -6.101460933685303,
                -4.17338752746582,
                -1.3106895685195923
            ],
            "type" : "VEC3"
        },
        {
            "bufferView" : 7,
            "componentType" : 5126,
            "count" : 150,
            "type" : "VEC3"
        },
        {
            "bufferView" : 8,
            "componentType" : 5123,
            "count" : 564,
            "type" : "SCALAR"
        },
        {
            "bufferView" : 9,
            "componentType" : 5126,
            "count" : 1398,
            "max" : [
                85.16671752929688,
                15.00000286102295,
                90.62992858886719
            ],
            "min" : [
                -85.16670227050781,
                -15.000005722045898,
                -165.6251220703125
            ],
            "type" : "VEC3"
        },
        {
            "bufferView" : 10,
            "componentType" : 5126,
            "count" : 1398,
            "type" : "VEC3"
        },
        {
            "bufferView" : 11,
            "componentType" : 5123,
            "count" : 8352,
            "type" : "SCALAR"
        },
        {
            "bufferView" : 12,
            "componentType" : 5126,
            "count" : 150,
            "max" : [
                2.050227642059326,
                -1.3094463348388672,
                1.0081559419631958
            ],
            "min" : [
                -6.1014299392700195,
                -4.169322967529297,
                -1.3107059001922607
            ],
            "type" : "VEC3"
        },
        {
            "bufferView" : 13,
            "componentType" : 5126,
            "count" : 150,
            "type" : "VEC3"
        },
        {
            "bufferView" : 14,
            "componentType" : 5123,
            "count" : 564,
            "type" : "SCALAR"
        }
    ],
    "bufferViews" : [
        {
            "buffer" : 0,
            "byteLength" : 91584,
            "byteOffset" : 0
        },
        {
            "buffer" : 0,
            "byteLength" : 91584,
            "byteOffset" : 91584
        },
        {
            "buffer" : 0,
            "byteLength" : 90336,
            "byteOffset" : 183168
        },
        {
            "buffer" : 0,
            "byteLength" : 56544,
            "byteOffset" : 273504
        },
        {
            "buffer" : 0,
            "byteLength" : 56544,
            "byteOffset" : 330048
        },
        {
            "buffer" : 0,
            "byteLength" : 27960,
            "byteOffset" : 386592
        },
        {
            "buffer" : 0,
            "byteLength" : 1800,
            "byteOffset" : 414552
        },
        {
            "buffer" : 0,
            "byteLength" : 1800,
            "byteOffset" : 416352
        },
        {
            "buffer" : 0,
            "byteLength" : 1128,
            "byteOffset" : 418152
        },
        {
            "buffer" : 0,
            "byteLength" : 16776,
            "byteOffset" : 419280
        },
        {
            "buffer" : 0,
            "byteLength" : 16776,
            "byteOffset" : 436056
        },
        {
            "buffer" : 0,
            "byteLength" : 16704,
            "byteOffset" : 452832
        },
        {
            "buffer" : 0,
            "byteLength" : 1800,
            "byteOffset" : 469536
        },
        {
            "buffer" : 0,
            "byteLength" : 1800,
            "byteOffset" : 471336
        },
        {
            "buffer" : 0,
            "byteLength" : 1128,
            "byteOffset" : 473136
        }
    ],
    "buffers" : [
        {
            "byteLength" : 474264,
            "uri" : "untitled.bin"
        }
    ]
}
