{
    "asset" : {
        "generator" : "Khronos glTF Blender I/O v1.8.19",
        "version" : "2.0"
    },
    "scene" : 0,
    "scenes" : [
        {
            "name" : "Scene",
            "nodes" : [
                0
            ]
        }
    ],
    "nodes" : [
        {
            "mesh" : 0,
            "name" : "Cylinder002",
            "rotation" : [
                1,
                0,
                0,
                -4.371138828673793e-08
            ],
            "scale" : [
                -0.10253608226776123,
                -0.10253608226776123,
                -0.09740927815437317
            ]
        }
    ],
    "materials" : [
        {
            "doubleSided" : true,
            "name" : "Material #0",
            "pbrMetallicRoughness" : {
                "baseColorFactor" : [
                    1,
                    0.45721879601478577,
                    0.587216854095459,
                    1
                ],
                "metallicFactor" : 0.9704545736312866,
                "roughnessFactor" : 0.03460460156202316
            }
        },
        {
            "doubleSided" : true,
            "name" : "\u947d\u77f3",
            "pbrMetallicRoughness" : {}
        }
    ],
    "meshes" : [
        {
            "name" : "\u7db2\u683c.001",
            "primitives" : [
                {
                    "attributes" : {
                        "POSITION" : 0,
                        "NORMAL" : 1,
                        "TEXCOORD_0" : 2
                    },
                    "indices" : 3,
                    "material" : 0
                },
                {
                    "attributes" : {
                        "POSITION" : 4,
                        "NORMAL" : 5,
                        "TEXCOORD_0" : 6
                    },
                    "indices" : 7,
                    "material" : 1
                }
            ]
        }
    ],
    "accessors" : [
        {
            "bufferView" : 0,
            "componentType" : 5126,
            "count" : 1960,
            "max" : [
                9.914814949035645,
                2.1000001430511475,
                10.436646461486816
            ],
            "min" : [
                -9.914814949035645,
                -0.9000000953674316,
                -10.436647415161133
            ],
            "type" : "VEC3"
        },
        {
            "bufferView" : 1,
            "componentType" : 5126,
            "count" : 1960,
            "type" : "VEC3"
        },
        {
            "bufferView" : 2,
            "componentType" : 5126,
            "count" : 1960,
            "type" : "VEC2"
        },
        {
            "bufferView" : 3,
            "componentType" : 5123,
            "count" : 11520,
            "type" : "SCALAR"
        },
        {
            "bufferView" : 4,
            "componentType" : 5126,
            "count" : 1890,
            "max" : [
                6.821339130401611,
                1.4368878602981567,
                10.850615501403809
            ],
            "min" : [
                -6.821339130401611,
                -0.43714314699172974,
                7.912892818450928
            ],
            "type" : "VEC3"
        },
        {
            "bufferView" : 5,
            "componentType" : 5126,
            "count" : 1890,
            "type" : "VEC3"
        },
        {
            "bufferView" : 6,
            "componentType" : 5126,
            "count" : 1890,
            "type" : "VEC2"
        },
        {
            "bufferView" : 7,
            "componentType" : 5123,
            "count" : 3132,
            "type" : "SCALAR"
        }
    ],
    "bufferViews" : [
        {
            "buffer" : 0,
            "byteLength" : 23520,
            "byteOffset" : 0
        },
        {
            "buffer" : 0,
            "byteLength" : 23520,
            "byteOffset" : 23520
        },
        {
            "buffer" : 0,
            "byteLength" : 15680,
            "byteOffset" : 47040
        },
        {
            "buffer" : 0,
            "byteLength" : 23040,
            "byteOffset" : 62720
        },
        {
            "buffer" : 0,
            "byteLength" : 22680,
            "byteOffset" : 85760
        },
        {
            "buffer" : 0,
            "byteLength" : 22680,
            "byteOffset" : 108440
        },
        {
            "buffer" : 0,
            "byteLength" : 15120,
            "byteOffset" : 131120
        },
        {
            "buffer" : 0,
            "byteLength" : 6264,
            "byteOffset" : 146240
        }
    ],
    "buffers" : [
        {
            "byteLength" : 152504,
            "uri" : "1gltf.bin"
        }
    ]
}
